<?xml version="1.0" encoding="utf-8"?>
<!-- Generator: Adobe Illustrator 25.3.1, SVG Export Plug-In . SVG Version: 6.00 Build 0)  -->
<svg version="1.1" id="Calque_1" xmlns="http://www.w3.org/2000/svg" xmlns:xlink="http://www.w3.org/1999/xlink" x="0px" y="0px"
	 viewBox="0 0 85 85" style="enable-background:new 0 0 85 85;" xml:space="preserve">
<style type="text/css">
	.st0{fill:#262626;}
</style>
<path class="st0" d="M59.4,53.6H25.3c-0.7,0-1.2,0.6-1.2,1.2c0,0.7,0.6,1.2,1.2,1.2h34.1c0.7,0,1.2-0.6,1.2-1.2
	C60.7,54.2,60.1,53.6,59.4,53.6"/>
<path class="st0" d="M59.4,41.3H25.3c-0.7,0-1.2,0.6-1.2,1.2c0,0.7,0.6,1.2,1.2,1.2h34.1c0.7,0,1.2-0.6,1.2-1.2
	C60.7,41.8,60.1,41.3,59.4,41.3"/>
<path class="st0" d="M25.3,31.4h34.1c0.7,0,1.2-0.6,1.2-1.2s-0.6-1.2-1.2-1.2H25.3c-0.7,0-1.2,0.6-1.2,1.2S24.6,31.4,25.3,31.4"/>
</svg>
