<svg id="club_doré" data-name="club doré" xmlns="http://www.w3.org/2000/svg" width="95.837" height="55" viewBox="0 0 95.837 55">
  <path id="Tracé_95" data-name="Tracé 95" d="M88.664,55H7.174A7.13,7.13,0,0,1,0,47.914V7.086A7.13,7.13,0,0,1,7.174,0h81.49a7.13,7.13,0,0,1,7.173,7.086V47.914A7.13,7.13,0,0,1,88.664,55" transform="translate(0 0)" fill="#e32638"/>
  <path id="Tracé_96" data-name="Tracé 96" d="M90.144,53.08a1.131,1.131,0,1,0-1.13,1.117,1.126,1.126,0,0,0,1.13-1.117m-.151,0a.98.98,0,1,1-.98-.967.975.975,0,0,1,.98.967m-1.172.009a.348.348,0,0,1,.363-.363.407.407,0,0,1,.228.089l-.047-.331a.492.492,0,0,0-.2-.04.632.632,0,0,0-.651.653.635.635,0,0,0,.872.6l.039-.329a.437.437,0,0,1-.236.092.348.348,0,0,1-.363-.371m.532,8.23-3.28-9.085-.019-.053H82.219l-.019.053L79.256,60.57,77.825,57.45a2.319,2.319,0,0,0,1.381-2.223c0-1.908-1.389-3.046-3.717-3.046H71.758v9.463l.088-.007,2.9-.211.076-.006V58l1.433,3.588.022.055.06,0,2.963-.2,2.989.2.065,0,.019-.06.478-1.521H85.4l.464,1.519.019.061.065,0,3.337-.211.107-.007Zm-13.292-5.39a.89.89,0,0,1-.942,1.007h-.3v-2h.3a.882.882,0,0,1,.942.993m8.709,1.709H83.432l.676-2.518Zm-13.5-2.623h.081V52.181H64.847l-.014.061-.653,2.675-.024.1h2.137v6.629l.087-.007,3.082-.211.076-.006V55.014Zm-7.589-.042.1.028V52.222l-.065-.012a14.225,14.225,0,0,0-2.6-.24c-2.389,0-3.872,1.172-3.872,3.059,0,1.928,1.627,2.479,2.7,2.845.568.193,1.016.344,1.016.6,0,.2-.132.411-1.11.411a12.916,12.916,0,0,1-2.413-.264l-.1-.019v2.759l.066.013.082.013a12.125,12.125,0,0,0,2.362.252c2.848,0,4.482-1.139,4.482-3.126,0-1.931-1.742-2.55-2.9-2.961-.511-.181-.953-.338-.953-.522,0-.355.532-.385,1.125-.385a8.764,8.764,0,0,1,2.067.329m-6.631,3.875.025-.1H53.9v-.808H55.82V55.519H53.9v-.743h2.962l-.024-.1-.611-2.438-.016-.06H50.659v9.245h5.754l.015-.061Zm-7.344,2.577.076-.006V51.963l-.087.006-3.082.211-.075,0V55.28H44.857V51.963l-.087.006-3.08.211-.076,0v9.458l.087-.007,3.082-.211.075-.006V58.034h1.684v3.609l.087-.007ZM36.892,56.8c0-1.234.9-2,2.361-2a3.69,3.69,0,0,1,1.559.338l.136.054-.026-.14-.511-2.835-.009-.05-.052-.013a5.282,5.282,0,0,0-1.4-.188c-3.123,0-5.307,2.02-5.307,4.913a4.817,4.817,0,0,0,5.08,4.754,7.269,7.269,0,0,0,1.823-.215l.052-.013.007-.052.412-2.887.022-.157-.142.077A3.284,3.284,0,0,1,39.2,58.8a2.108,2.108,0,0,1-2.3-2m-3.557-1.576c0-1.908-1.389-3.046-3.717-3.046h-3.73v9.463l.088-.007,2.9-.211.075-.006V58l1.433,3.59.021.055.061,0,3.195-.211.115-.009-.047-.1L31.954,57.45a2.32,2.32,0,0,0,1.381-2.223m-3.145.7a.889.889,0,0,1-.941,1.007h-.3v-2h.3a.882.882,0,0,1,.941.993m-4.807.874c0-2.4-1.823-4.833-5.307-4.833S14.769,54.4,14.769,56.8s1.823,4.833,5.307,4.833S25.382,59.2,25.382,56.8m-3.243,0a2.064,2.064,0,1,1-2.064-2,1.989,1.989,0,0,1,2.064,2" transform="translate(-4.175 -15.142)" fill="#fff"/>
  <path id="Tracé_97" data-name="Tracé 97" d="M56.222,12.375l-4.451-.051a.407.407,0,0,0-.245.1.337.337,0,0,0-.1.241V37.193a.34.34,0,0,0,.341.338h4.451a.34.34,0,0,0,.342-.338V12.713a.34.34,0,0,0-.338-.338" transform="translate(-14.537 -3.591)" fill="#fff"/>
  <path id="Tracé_98" data-name="Tracé 98" d="M101.727,18.126a10.386,10.386,0,0,0-5.364,1.519l.2-7.1a.339.339,0,0,0-.326-.347l-4.659-.208a.344.344,0,0,0-.251.093.337.337,0,0,0-.106.244V37.116a.339.339,0,0,0,.342.337H96a.339.339,0,0,0,.342-.337v-.934a10.381,10.381,0,0,0,5.382,1.529,9.793,9.793,0,1,0,0-19.585m-5.382,9.741a5.356,5.356,0,0,1,5.382-5.182,5.233,5.233,0,1,1,0,10.466,5.356,5.356,0,0,1-5.382-5.181Z" transform="translate(-25.787 -3.495)" fill="#fff"/>
  <path id="Tracé_99" data-name="Tracé 99" d="M81.07,20.93a.34.34,0,0,0-.342-.338H76.794a.34.34,0,0,0-.342.338v9.189a.366.366,0,0,0,0,.069c.008.118.012.237.012.356a5.281,5.281,0,0,1-10.56,0c0-.119,0-.237.014-.391V20.93a.34.34,0,0,0-.342-.338H61.635a.339.339,0,0,0-.341.338v9.223c-.006.13-.007.26-.007.391a9.9,9.9,0,0,0,19.791,0c0-.131,0-.261-.006-.4Z" transform="translate(-17.324 -6)" fill="#fff"/>
  <path id="Tracé_100" data-name="Tracé 100" d="M38.895,29.761A13.066,13.066,0,0,1,13.757,24.94a13.066,13.066,0,0,1,25.162-4.761s.251.694-.451.694H34.037a.591.591,0,0,1-.56-.283,7.913,7.913,0,1,0-.051,8.771.758.758,0,0,1,.65-.353h4.405s.663,0,.414.753" transform="translate(-3.889 -3.511)" fill="#fff"/>
  <rect id="Rectangle_15" data-name="Rectangle 15" width="95.837" height="55" fill="none"/>
</svg>
