<?xml version="1.0" encoding="utf-8"?>
<!-- Generator: Adobe Illustrator 27.4.0, SVG Export Plug-In . SVG Version: 6.00 Build 0)  -->
<svg version="1.1" id="Calque_2" xmlns="http://www.w3.org/2000/svg" xmlns:xlink="http://www.w3.org/1999/xlink" x="0px" y="0px"
	 viewBox="0 0 24.2 23.1" style="enable-background:new 0 0 24.2 23.1;" xml:space="preserve">
<style type="text/css">
	.st0{fill:#252525;}
</style>
<g>
	<path class="st0" d="M18.1,3.2c0-0.7-0.4-1.3-1-1.5c-0.7-0.2-1.4-0.1-1.8,0.5c-0.6,0.7-1,1.4-1.3,2.3c-0.2,0.4-0.3,0.9-0.4,1.4
		c0,0.2,0,0.3,0.3,0.3c0.1,0,0.1,0,0.2,0c0.4-0.1,0.8-0.2,1.2-0.4c0.8-0.3,1.6-0.7,2.2-1.3C17.9,4.1,18.1,3.7,18.1,3.2 M7.6,1.5
		c-0.6,0-1,0.3-1.3,0.8C5.9,3.1,6,3.9,6.6,4.4C7.3,5,8,5.4,8.8,5.8C9.2,5.9,9.7,6,10.1,6.1c0.4,0.1,0.4,0,0.4-0.4c0-0.1,0-0.2,0-0.3
		c-0.3-1.2-0.8-2.3-1.6-3.3C8.6,1.7,8.2,1.5,7.6,1.5 M12.8,10.7h9.8v-3h-9.8V10.7z M11.3,7.7H1.5v3.1h9.8V7.7z M12.8,21.5h8.3v-9.2
		h-8.3V21.5z M3,21.5h8.3v-9.2H3V21.5z M17.9,6.1h0.3c1.4,0,2.9,0,4.3,0c1.1,0,1.7,0.6,1.7,1.7c0,1.2,0,2.4,0,3.6
		c0,0.5-0.3,0.9-0.8,0.9c-0.2,0-0.4,0-0.7,0v0.3c0,3,0,5.9,0,8.9c0,0.8-0.4,1.4-1.1,1.6c-0.2,0-0.3,0.1-0.5,0.1c-6,0-11.9,0-17.9,0
		c-1,0-1.6-0.7-1.6-1.7c0-2.9,0-5.9,0-8.8v-0.3c-0.2,0-0.4,0-0.6,0C0.4,12.3,0,12,0,11.4C0,10.2,0,9,0,7.8c0-1,0.6-1.7,1.6-1.7
		c1.5,0,2.9,0,4.4,0h0.3C6,5.9,5.8,5.8,5.6,5.6c-1.5-1.4-1.4-3.8,0.3-5c1.3-0.9,3.2-0.8,4.3,0.6C11,2.4,11.6,3.6,12,5
		C12,5.3,12,5.6,12,5.9C12,6,12,6,12,6.1c0,0,0,0,0.1,0c0,0,0-0.1,0-0.1c0-0.8,0.1-1.5,0.4-2.1c0.4-1,0.9-2,1.6-2.8
		C15.1,0,16.8-0.3,18,0.4c1.9,1.1,2.2,3.7,0.5,5.2C18.4,5.8,18.2,5.9,17.9,6.1"/>
</g>
</svg>
