<?xml version="1.0" encoding="utf-8"?>
<!-- Generator: Adobe Illustrator 25.4.1, SVG Export Plug-In . SVG Version: 6.00 Build 0)  -->
<!DOCTYPE svg PUBLIC "-//W3C//DTD SVG 1.1//EN" "http://www.w3.org/Graphics/SVG/1.1/DTD/svg11.dtd" [
	<!ENTITY ns_extend "http://ns.adobe.com/Extensibility/1.0/">
	<!ENTITY ns_ai "http://ns.adobe.com/AdobeIllustrator/10.0/">
	<!ENTITY ns_graphs "http://ns.adobe.com/Graphs/1.0/">
	<!ENTITY ns_vars "http://ns.adobe.com/Variables/1.0/">
	<!ENTITY ns_imrep "http://ns.adobe.com/ImageReplacement/1.0/">
	<!ENTITY ns_sfw "http://ns.adobe.com/SaveForWeb/1.0/">
	<!ENTITY ns_custom "http://ns.adobe.com/GenericCustomNamespace/1.0/">
	<!ENTITY ns_adobe_xpath "http://ns.adobe.com/XPath/1.0/">
]>
<svg version="1.1" id="favoris_-_copie" xmlns:x="&ns_extend;" xmlns:i="&ns_ai;" xmlns:graph="&ns_graphs;"
	 xmlns="http://www.w3.org/2000/svg" xmlns:xlink="http://www.w3.org/1999/xlink" x="0px" y="0px" viewBox="0 0 35 35"
	 style="enable-background:new 0 0 35 35;" xml:space="preserve">
<style type="text/css">
	.st0{fill:#262626;}
</style>
<metadata>
	<sfw  xmlns="&ns_sfw;">
		<slices></slices>
		<sliceSourceBounds  bottomLeftOrigin="true" height="24.2" width="22.7" x="6.2" y="0"></sliceSourceBounds>
	</sfw>
</metadata>
<g>
	<path class="st0" d="M17.5,35c-0.3,0-0.6-0.1-0.8-0.3c-2.8-2.4-4.7-4.3-6.3-6.4c-1.5-2-3-4.2-3.7-6.9c-0.4-1.5-1.1-5.1,0.8-7.9
		c1.3-2,3.8-3.1,6.1-2.7c1.5,0.2,2.8,0.9,3.9,2.1c0.4-0.5,0.9-0.9,1.5-1.2c1.2-0.7,2.5-1,3.9-0.9c0,0,0,0,0,0c1.2,0,2.4,0.4,3.5,1.3
		c0.9,0.8,1.6,1.8,2,2.9c1,3.1,0.3,6-0.4,7.9c-0.9,2.2-2.2,4.2-4.1,6.5c-1.5,1.7-3.2,3.5-5.4,5.3C18.2,34.9,17.8,35,17.5,35z
		 M12.7,12.3c-1.6,0-3.1,0.8-4,2.1c-1.5,2.3-0.9,5.4-0.6,6.7c0.7,2.4,2.1,4.5,3.5,6.3c1.5,1.9,3.4,3.8,6,6.1c2-1.8,3.7-3.4,5.1-5.1
		c1.8-2.2,3-4.1,3.9-6.1c0.9-2.3,1.1-4.8,0.4-6.8c-0.4-0.9-0.9-1.7-1.6-2.3c-0.7-0.6-1.7-0.9-2.6-0.9c-1.1-0.1-2.1,0.2-3,0.7
		c-0.7,0.4-1.2,0.9-1.7,1.6c-0.3,0.4-0.9,0.4-1.2,0c-1-1.4-2.1-2.1-3.5-2.3C13.2,12.3,13,12.3,12.7,12.3z"/>
</g>
</svg>
