<?xml version="1.0" encoding="utf-8"?>
<!-- Generator: Adobe Illustrator 25.4.1, SVG Export Plug-In . SVG Version: 6.00 Build 0)  -->
<!DOCTYPE svg PUBLIC "-//W3C//DTD SVG 1.1//EN" "http://www.w3.org/Graphics/SVG/1.1/DTD/svg11.dtd" [
	<!ENTITY ns_extend "http://ns.adobe.com/Extensibility/1.0/">
	<!ENTITY ns_ai "http://ns.adobe.com/AdobeIllustrator/10.0/">
	<!ENTITY ns_graphs "http://ns.adobe.com/Graphs/1.0/">
	<!ENTITY ns_vars "http://ns.adobe.com/Variables/1.0/">
	<!ENTITY ns_imrep "http://ns.adobe.com/ImageReplacement/1.0/">
	<!ENTITY ns_sfw "http://ns.adobe.com/SaveForWeb/1.0/">
	<!ENTITY ns_custom "http://ns.adobe.com/GenericCustomNamespace/1.0/">
	<!ENTITY ns_adobe_xpath "http://ns.adobe.com/XPath/1.0/">
]>
<svg version="1.1" id="pin_point" xmlns:x="&ns_extend;" xmlns:i="&ns_ai;" xmlns:graph="&ns_graphs;"
	 xmlns="http://www.w3.org/2000/svg" xmlns:xlink="http://www.w3.org/1999/xlink" x="0px" y="0px" viewBox="0 0 35 35"
	 style="enable-background:new 0 0 35 35;" xml:space="preserve">
<style type="text/css">
	.st0{fill:#262626;}
</style>
<metadata>
	<sfw  xmlns="&ns_sfw;">
		<slices></slices>
		<sliceSourceBounds  bottomLeftOrigin="true" height="24.1" width="18.5" x="-10.1" y="20.4"></sliceSourceBounds>
	</sfw>
</metadata>
<g>
	<path class="st0" d="M22.3,27.3c-1.7,2.5-3.6,4.6-4.8,5.8c-1.1-1.2-3.1-3.3-4.8-5.8c-1.9-2.9-3-5.4-3-7.2c0-4.3,3.5-7.7,7.7-7.7
		c4.3,0,7.7,3.5,7.7,7.7C25.2,21.9,24.2,24.4,22.3,27.3 M17.5,10.8c-5.1,0-9.2,4.1-9.2,9.2c0,2.2,1.1,4.9,3.2,8.1
		c2.1,3,4.5,5.6,5.5,6.6c0.1,0.1,0.3,0.2,0.5,0.2c0.2,0,0.4-0.1,0.5-0.2c1-1,3.4-3.5,5.5-6.6c2.1-3.2,3.2-5.9,3.2-8.1
		C26.7,15,22.6,10.8,17.5,10.8"/>
	<path class="st0" d="M17.5,17.2c-1,0-1.9,0.8-1.9,1.9s0.8,1.9,1.9,1.9c1,0,1.9-0.8,1.9-1.9S18.5,17.2,17.5,17.2"/>
</g>
</svg>
