<svg xmlns="http://www.w3.org/2000/svg" viewBox="0 0 270.96 37.41"><defs><style>.cls-1,.cls-2{fill:#e32638;}.cls-2{font-size:12px;font-family:TradeGothicNextLTPro-Rg, Trade Gothic Next LT Pro;}</style></defs><g id="Calque_2" data-name="Calque 2"><g id="Calque_1-2" data-name="Calque 1"><path class="cls-1" d="M40,37.36V3.65H54.08q6.53,0,10,2.52a8.4,8.4,0,0,1,3.47,7.27,9.21,9.21,0,0,1-1.4,5.1A9.49,9.49,0,0,1,62.08,22l6.61,14L56.85,37.36l-5.62-14.3V36.55ZM51.23,12.62v7.93h.15a5.58,5.58,0,0,0,3.61-1,3.62,3.62,0,0,0,1.26-2.94A3.56,3.56,0,0,0,55,13.64a5.64,5.64,0,0,0-3.61-1Z"/><path class="cls-1" d="M94,13.9a14.74,14.74,0,0,0-3-1.07,12.71,12.71,0,0,0-2.91-.35A8.83,8.83,0,0,0,82,14.61a7,7,0,0,0-2.38,5.5,7,7,0,0,0,2.42,5.55,9.43,9.43,0,0,0,6.39,2.1,11.8,11.8,0,0,0,3-.38,10.72,10.72,0,0,0,2.83-1.19L92.84,36.83c-.93.18-1.84.33-2.74.43a23.9,23.9,0,0,1-2.64.15q-8.52,0-13.85-4.8a16.05,16.05,0,0,1-5.33-12.5,17.45,17.45,0,0,1,1.39-7,15.38,15.38,0,0,1,4.14-5.54A18.09,18.09,0,0,1,79.7,4.08a20.56,20.56,0,0,1,7-1.19,24.21,24.21,0,0,1,3.08.17,16.79,16.79,0,0,1,2.65.55Z"/><path class="cls-1" d="M97.05,37V4.21l11.38-.86v11.5H115V4.21l11.38-.86v33L115,37V24.4h-6.56V36.32Z"/><path class="cls-1" d="M130.59,36.6V3.65H150.5l2.12,8.79H142v3h6.76V24H142V27.3H153.3l-2.22,9.3Z"/><path class="cls-1" d="M154.05,36.32V27c.47.07,1.17.17,2.07.33a55.69,55.69,0,0,0,7.45.9,5.37,5.37,0,0,0,2.61-.56,1.69,1.69,0,0,0,1-1.45q0-.93-2.58-1.86c-.79-.28-1.41-.51-1.87-.69q-5.11-2.14-7.14-4.36a8,8,0,0,1-2-5.52,9.1,9.1,0,0,1,4-7.62q4-2.92,10.39-2.93a44.73,44.73,0,0,1,4.74.24,34.77,34.77,0,0,1,4.19.71v9.23a43,43,0,0,0-4.36-1,21.94,21.94,0,0,0-3.54-.31,6.84,6.84,0,0,0-2.74.43,1.35,1.35,0,0,0-.94,1.24c0,.7.94,1.38,2.83,2.06,1.16.42,2.08.79,2.77,1.12q4.62,2.14,6.31,4.23a8,8,0,0,1,1.69,5.27,9.19,9.19,0,0,1-4,8q-3.94,2.78-11.39,2.78c-2.19,0-4-.07-5.53-.22A24.1,24.1,0,0,1,154.05,36.32Z"/><path class="cls-1" d="M186.05,37.18v-24h-7.8l2.48-9.53h23.19v9.53h-6.51v23Z"/><path class="cls-1" d="M205.68,37.36V3.65h14.13q6.54,0,10,2.52a8.43,8.43,0,0,1,3.47,7.27,9.29,9.29,0,0,1-1.4,5.1A9.46,9.46,0,0,1,227.81,22l6.62,14.56-11.84.83L217,23.06V36.55ZM217,12.62v7.93h.15a5.55,5.55,0,0,0,3.61-1A3.62,3.62,0,0,0,222,16.57a3.56,3.56,0,0,0-1.26-2.93,5.6,5.6,0,0,0-3.61-1Z"/><path class="cls-1" d="M231,36.37l12.17-33h13.58l11.83,32.75-12.29.86-1.81-5.79H245l-1.89,5.79Zm16-13.79h5.38l-2.58-9.69Z"/><path class="cls-1" d="M18.8,2.84a21.62,21.62,0,0,1,7.32,1.21,18.32,18.32,0,0,1,6,3.5,15.32,15.32,0,0,1,4.13,5.54,17.36,17.36,0,0,1,1.4,7,17.38,17.38,0,0,1-1.39,7,15.92,15.92,0,0,1-4.14,5.57,18.61,18.61,0,0,1-6.07,3.5,21.6,21.6,0,0,1-7.28,1.21,21.27,21.27,0,0,1-7.23-1.21,18.58,18.58,0,0,1-6-3.5,15.68,15.68,0,0,1-4.14-5.57,17.22,17.22,0,0,1-1.39-7,17.14,17.14,0,0,1,1.39-7A15.59,15.59,0,0,1,5.53,7.55a18.27,18.27,0,0,1,6-3.52A21.76,21.76,0,0,1,18.8,2.84Zm0,24.83a7.21,7.21,0,0,0,5.4-2,7.55,7.55,0,0,0,2-5.52,7.51,7.51,0,0,0-2-5.49,7.21,7.21,0,0,0-5.4-2,7.09,7.09,0,0,0-5.34,2,7.52,7.52,0,0,0-2,5.5,7.56,7.56,0,0,0,2,5.53A7.13,7.13,0,0,0,18.8,27.67Z"/><text class="cls-2" transform="translate(261.26 10.31)">©</text></g></g></svg>