<?xml version="1.0" encoding="utf-8"?>
<!-- Generator: Adobe Illustrator 25.4.1, SVG Export Plug-In . SVG Version: 6.00 Build 0)  -->
<!DOCTYPE svg PUBLIC "-//W3C//DTD SVG 1.1//EN" "http://www.w3.org/Graphics/SVG/1.1/DTD/svg11.dtd" [
	<!ENTITY ns_extend "http://ns.adobe.com/Extensibility/1.0/">
	<!ENTITY ns_ai "http://ns.adobe.com/AdobeIllustrator/10.0/">
	<!ENTITY ns_graphs "http://ns.adobe.com/Graphs/1.0/">
	<!ENTITY ns_vars "http://ns.adobe.com/Variables/1.0/">
	<!ENTITY ns_imrep "http://ns.adobe.com/ImageReplacement/1.0/">
	<!ENTITY ns_sfw "http://ns.adobe.com/SaveForWeb/1.0/">
	<!ENTITY ns_custom "http://ns.adobe.com/GenericCustomNamespace/1.0/">
	<!ENTITY ns_adobe_xpath "http://ns.adobe.com/XPath/1.0/">
]>
<svg version="1.1" id="mon_compte" xmlns:x="&ns_extend;" xmlns:i="&ns_ai;" xmlns:graph="&ns_graphs;"
	 xmlns="http://www.w3.org/2000/svg" xmlns:xlink="http://www.w3.org/1999/xlink" x="0px" y="0px" viewBox="0 0 35 35"
	 style="enable-background:new 0 0 35 35;" xml:space="preserve">
<style type="text/css">
	.st0{fill:#262626;}
</style>
<metadata>
	<sfw  xmlns="&ns_sfw;">
		<slices></slices>
		<sliceSourceBounds  bottomLeftOrigin="true" height="24.3" width="24.4" x="5.3" y="0"></sliceSourceBounds>
	</sfw>
</metadata>
<g>
	<path class="st0" d="M28,30.3c-2.7-2.6-8-2.5-10.1-2.5c-0.2,0-0.3,0-0.5,0c-0.1,0-0.2,0-0.3,0c-1.8,0-7.4-0.1-10.2,2.6
		c-1,1-1.6,2.3-1.6,3.8c0,0.4,0.3,0.8,0.8,0.8c0.4,0,0.8-0.3,0.8-0.8c0-1.1,0.4-2,1.1-2.8c1.5-1.5,4.6-2.2,9.1-2.1
		c0.1,0,0.3,0,0.4,0s0.3,0,0.5,0c1.8,0,6.8-0.1,9,2.1c0.8,0.7,1.1,1.7,1.1,2.8c0,0.4,0.3,0.8,0.8,0.8c0.4,0,0.8-0.3,0.8-0.8
		C29.6,32.7,29.1,31.4,28,30.3"/>
	<path class="st0" d="M17.5,12.3c3.6,0,6.5,2.9,6.5,6.5s-2.9,6.5-6.5,6.5S11,22.4,11,18.8C11,15.3,13.9,12.3,17.5,12.3 M17.5,26.9
		c4.4,0,8.1-3.6,8.1-8.1c0-4.4-3.6-8.1-8.1-8.1s-8.1,3.6-8.1,8.1S13.1,26.9,17.5,26.9"/>
</g>
</svg>
